<svg xmlns="http://www.w3.org/2000/svg" viewBox="0 0 52 52"><path class="cls-1" d="M26,20a6,6,0,1,0,6,6A6,6,0,0,0,26,20Z"/><path class="cls-1" d="M0,0V52H52V0ZM43.89,33.42a13.38,13.38,0,0,1-.83,4.37,9.18,9.18,0,0,1-5.27,5.26,13.1,13.1,0,0,1-4.37.84C31.5,44,30.89,44,26,44s-5.5,0-7.42-.11a13.1,13.1,0,0,1-4.37-.84,9.18,9.18,0,0,1-5.27-5.26,13.38,13.38,0,0,1-.83-4.37C8,31.5,8,30.89,8,26s0-5.5.11-7.42a13.38,13.38,0,0,1,.83-4.37,9.24,9.24,0,0,1,5.27-5.27,13.38,13.38,0,0,1,4.37-.83C20.5,8,21.11,8,26,8s5.5,0,7.42.11a13.38,13.38,0,0,1,4.37.83,9.24,9.24,0,0,1,5.27,5.27,13.38,13.38,0,0,1,.83,4.37C44,20.5,44,21.11,44,26S44,31.5,43.89,33.42Z"/><path class="cls-1" d="M40,15.38A5.89,5.89,0,0,0,36.62,12a9.93,9.93,0,0,0-3.35-.62c-1.89-.09-2.46-.11-7.27-.11s-5.38,0-7.27.11a9.93,9.93,0,0,0-3.35.62A5.89,5.89,0,0,0,12,15.38a9.93,9.93,0,0,0-.62,3.35c-.09,1.89-.11,2.46-.11,7.27s0,5.38.11,7.27A9.93,9.93,0,0,0,12,36.62,5.89,5.89,0,0,0,15.38,40a9.93,9.93,0,0,0,3.35.62c1.89.09,2.46.11,7.27.11s5.38,0,7.27-.11A9.93,9.93,0,0,0,36.62,40,5.89,5.89,0,0,0,40,36.62a9.93,9.93,0,0,0,.62-3.35c.09-1.89.11-2.46.11-7.27s0-5.38-.11-7.27A9.93,9.93,0,0,0,40,15.38ZM26,35.24A9.24,9.24,0,1,1,35.24,26,9.24,9.24,0,0,1,26,35.24Zm9.61-16.69a2.16,2.16,0,1,1,2.16-2.16A2.16,2.16,0,0,1,35.61,18.55Z"/></svg>
