<svg xmlns="http://www.w3.org/2000/svg" viewBox="0 0 52 52">
    <polygon class="cls-1" points="22.18 30.8 32.17 25.62 22.18 20.41 22.18 30.8"/>
    <path class="cls-1" d="M0,0V52H52V0ZM44.48,27.4a55.81,55.81,0,0,1-.37,6s-.36,2.55-1.47,3.67a5.24,5.24,0,0,1-3.7,1.56C33.77,39,26,39,26,39s-9.61-.09-12.57-.37c-.82-.16-2.67-.11-4.07-1.58-1.11-1.12-1.47-3.67-1.47-3.67a55.81,55.81,0,0,1-.37-6V24.59a55.81,55.81,0,0,1,.37-6s.36-2.55,1.47-3.67a5.31,5.31,0,0,1,3.7-1.57C18.23,13,26,13,26,13h0s7.76,0,12.93.37a5.31,5.31,0,0,1,3.7,1.57c1.11,1.12,1.47,3.67,1.47,3.67a55.81,55.81,0,0,1,.37,6Z"/>
</svg>
